<svg width="36" height="36" viewBox="0 0 36 36" fill="none" xmlns="http://www.w3.org/2000/svg">
<g clip-path="url(#clip0_138_2566)">
<path d="M7.58033 32.7335C7.87331 32.9205 8.17253 33.0888 8.47799 33.2634C8.01046 32.9704 7.55539 32.6525 7.11279 32.3221C7.1689 32.5216 7.42448 32.6338 7.58033 32.7335Z" fill="#E6F1F2"/>
<path d="M25.4087 34.4914C25.8451 34.2919 26.2627 34.0426 26.6617 33.7745C25.7516 34.2732 24.7978 34.6971 23.8066 35.0338C24.3552 34.8966 24.8975 34.7283 25.4087 34.4914Z" fill="#E6F1F2"/>
<path d="M7.49292 32.0291C10.4228 34.2296 14.0633 35.5325 17.9968 35.5325C22.2171 35.5325 26.0945 34.0301 29.1241 31.5366L22.9651 27.8712C22.828 28.6441 20.5402 29.0493 18.2773 29.0493C16.0145 29.0493 13.7766 28.6504 13.602 27.8899L7.49292 32.0228V32.0291Z" fill="#E6F1F2"/>
<path d="M36 18.0031C36 8.07273 27.9273 0 18.0031 0C8.07896 0 0 8.07273 0 18.0031C0 23.8379 2.79273 29.0306 7.10649 32.3221C7.54286 32.6587 8.00416 32.9704 8.47169 33.2634C11.2395 34.9964 14.4997 36 17.9969 36C20.0291 36 21.9803 35.6571 23.8005 35.0338C24.7917 34.6971 25.7517 34.2732 26.6556 33.7745C32.2161 30.7075 35.9938 24.7855 35.9938 18.0031H36ZM14.1257 27.547C14.4873 27.3164 15.3101 27.067 16.6566 26.9423V27.8026H16.9683V24.5984C17.3049 24.6545 17.6478 24.6982 18.0031 24.6982C18.533 24.6982 19.0442 24.6234 19.5366 24.4987V28.0956H19.8483V26.9361C21.787 27.1106 22.6722 27.5408 22.6722 27.8026C22.6722 28.1953 21.0016 28.7439 18.2836 28.7439C15.5657 28.7439 13.9013 28.1953 13.9013 27.8026C13.9013 27.7403 13.9574 27.6717 14.0509 27.5969L14.1257 27.547ZM25.0722 15.7901C25.359 15.8088 26.1756 15.9086 26.4935 16.4322C26.7117 16.7875 26.6618 17.2987 26.3439 17.9345C25.7143 19.1875 25.1782 19.5865 24.8353 19.6987C24.6795 19.7486 24.5735 19.7423 24.5049 19.7299C24.8852 18.7138 25.1034 17.5917 25.1034 16.4135C25.1034 16.2016 25.0909 15.9958 25.0784 15.7901H25.0722ZM10.9091 16.1517C10.9091 16.239 10.8966 16.3262 10.8966 16.4135C10.8966 17.5979 11.1148 18.72 11.4951 19.7361C11.4265 19.7423 11.333 19.7361 11.2083 19.6987C10.8655 19.5865 10.3231 19.1875 9.69351 17.9345C9.37558 17.2925 9.32571 16.7875 9.5439 16.4322C9.82442 15.9771 10.479 15.8462 10.8343 15.8026C10.853 15.921 10.8779 16.0332 10.9029 16.1517H10.9091ZM11.2332 16.9247L12.2244 14.1943C12.2743 14.1008 12.3242 14.001 12.374 13.9075C12.8229 13.0784 13.1283 12.2618 13.9138 11.6696C14.3252 11.3579 14.8052 11.146 15.2977 10.9714C15.4473 10.9216 15.5969 10.8717 15.7527 10.8468C15.9834 10.8156 16.214 10.8468 16.4447 10.8717L20.8644 11.414C21.2571 11.4639 21.6561 11.5138 22.0301 11.6384C22.1174 11.6696 22.2047 11.6945 22.2857 11.7257C22.8094 12.3616 23.2894 13.0348 23.7008 13.7455C24.0623 14.3751 24.586 15.0982 24.773 15.8275C24.7855 16.0208 24.7979 16.214 24.7979 16.4135C24.7979 20.8145 21.7496 24.3927 18.0093 24.3927C14.2691 24.3927 11.4701 21.0888 11.2395 16.9247H11.2332ZM18.2836 29.0618C20.5465 29.0618 22.8281 28.6566 22.9714 27.8836L29.1304 31.5491C26.1008 34.0426 22.2234 35.5449 18.0031 35.5449C14.0634 35.5449 10.4291 34.2421 7.49922 32.0416L13.6083 27.9086C13.7829 28.6691 16.0457 29.0681 18.2836 29.0681V29.0618ZM29.3797 31.3309L22.7657 27.3974C22.1797 26.8862 20.5777 26.6868 19.8483 26.6244V24.4114C21.8493 23.7818 23.4951 22.161 24.3865 20.0229C24.4426 20.0416 24.5174 20.054 24.6047 20.054C24.6919 20.054 24.7979 20.0416 24.9101 20.0042C25.5023 19.8234 26.0758 19.1751 26.6244 18.0717C26.9984 17.3299 27.0421 16.719 26.7616 16.2639C26.3688 15.6218 25.4587 15.5034 25.1096 15.4784C25.1283 15.3912 25.1408 15.2977 25.1532 15.2104C25.3216 14.0571 25.0036 12.8852 24.5922 11.7756C25.1283 11.5823 25.6145 11.2582 26.0073 10.8281C26.7055 10.0551 27.0919 9.05143 27.3475 8.04779C26.8675 8.44052 26.2192 8.54649 25.6021 8.53403C23.2831 8.49039 21.2135 7.03169 18.9132 6.6826C17.4857 6.46442 15.921 6.6639 14.6743 7.40571C13.5273 8.08519 12.4613 8.6026 11.6634 9.73714C11.3205 10.2296 11.0774 10.7532 10.9091 11.2956C10.7096 11.8504 10.6036 12.4364 10.6099 13.0348C10.6099 13.0535 10.6099 13.0784 10.6099 13.0971C10.5787 13.8888 10.6473 14.6992 10.7782 15.4971C10.3668 15.547 9.62494 15.7029 9.27584 16.2701C8.99532 16.7252 9.03896 17.3361 9.41299 18.0779C9.96156 19.1751 10.5413 19.8296 11.1273 20.0104C11.2457 20.0478 11.3455 20.0603 11.4327 20.0603C11.5013 20.0603 11.5574 20.054 11.6073 20.0416C12.5735 22.3481 14.4249 24.0623 16.6442 24.561V26.6431C15.6031 26.7366 14.5371 26.9423 13.9761 27.2852L7.22494 31.8421C3.12312 28.613 0.467532 23.6135 0.467532 18.0031C0.467532 8.33454 8.33454 0.467532 18.0031 0.467532C27.6717 0.467532 35.5325 8.33455 35.5325 17.9969C35.5325 23.3268 33.1387 28.1018 29.3735 31.3247L29.3797 31.3309Z" fill="#165643"/>
<path d="M21.0078 16.8374C21.2453 16.8374 21.4379 16.6449 21.4379 16.4073C21.4379 16.1697 21.2453 15.9772 21.0078 15.9772C20.7702 15.9772 20.5776 16.1697 20.5776 16.4073C20.5776 16.6449 20.7702 16.8374 21.0078 16.8374Z" fill="#165643"/>
<path d="M15.466 16.8374C15.7036 16.8374 15.8961 16.6449 15.8961 16.4073C15.8961 16.1697 15.7036 15.9772 15.466 15.9772C15.2285 15.9772 15.0359 16.1697 15.0359 16.4073C15.0359 16.6449 15.2285 16.8374 15.466 16.8374Z" fill="#165643"/>
<path d="M20.3595 21.5563L20.1475 21.3257C18.6015 22.7283 16.9247 22.2046 16.8561 22.1859L16.7563 22.4852C16.7875 22.4976 17.1615 22.6161 17.7101 22.6161C18.4145 22.6161 19.4057 22.4228 20.3532 21.5626L20.3595 21.5563Z" fill="#165643"/>
<path d="M17.2051 19.4306C17.4732 19.8358 17.9469 19.9418 17.9719 19.948C17.9843 19.948 17.9968 19.948 18.003 19.948C18.0778 19.948 18.1402 19.8982 18.1526 19.8234C18.1713 19.7423 18.1152 19.6551 18.0342 19.6364C18.0342 19.6364 17.6602 19.5491 17.4607 19.2561C17.361 19.0504 17.8472 17.8161 18.0529 17.2862C18.2524 16.7751 18.3521 16.5195 18.3521 16.4073C18.3584 16.0893 17.9095 15.6343 17.7724 15.5034C17.71 15.441 17.6103 15.4473 17.5542 15.5034C17.4981 15.5657 17.4981 15.6654 17.5542 15.7216C17.7911 15.946 18.0404 16.2639 18.0404 16.3886C18.0404 16.4696 17.8908 16.8374 17.7599 17.1616C17.23 18.508 17.0243 19.1564 17.1926 19.4119L17.2051 19.4306Z" fill="#165643"/>
</g>
<defs>
<clipPath id="clip0_138_2566">
<rect width="36" height="36" fill="white"/>
</clipPath>
</defs>
</svg>
